<svg width="23" height="24" viewBox="0 0 23 24" fill="none" xmlns="http://www.w3.org/2000/svg">
<path fill-rule="evenodd" clip-rule="evenodd" d="M16.6082 4.62138H20.6916C21.1381 4.62138 21.5 4.9726 21.5 5.40595V21.6464C21.5 23.0462 20.6086 24.0001 19.0749 24.0001H3.92506C2.5878 24.0001 1.5 22.9443 1.5 21.6464V5.40595C1.5 4.9726 1.86186 4.62138 2.30835 4.62138H6.39198C6.69024 2.02293 8.86713 -2.23023e-07 11.5 0C14.1382 2.23474e-07 16.311 2.01875 16.6082 4.62138ZM16.6429 6.19051V6.97632C17.1163 6.97632 17.5 7.3667 17.5 7.84836C17.5 8.33003 17.1163 8.72041 16.6429 8.72041H14.9286C14.4551 8.72041 14.0714 8.33003 14.0714 7.84836C14.0714 7.3667 14.4551 6.97632 14.9286 6.97632V6.19051H8.07143V6.97632C8.54487 6.97632 8.92857 7.3667 8.92857 7.84836C8.92857 8.33003 8.54487 8.7204 8.07143 8.7204H6.35714C5.8837 8.7204 5.5 8.33003 5.5 7.84836C5.5 7.3667 5.88371 6.97632 6.35714 6.97632V6.19051H3.11671V18.2728H19.8833V6.19051H16.6429ZM14.8762 4.62138C14.5923 2.98605 13.1889 1.74408 11.5 1.74408C9.81438 1.74408 8.4088 2.98831 8.12407 4.62138H14.8762ZM3.11671 21.6464V19.8419H19.8833V21.6464C19.8833 22.0791 19.5208 22.4309 19.0749 22.4309H3.92506C3.4792 22.4309 3.11671 22.0791 3.11671 21.6464Z" fill="#231F10"/>
</svg>
