<svg width="10" height="20" viewBox="0 0 10 20" fill="none" xmlns="http://www.w3.org/2000/svg">
<path d="M2.01738 3.87336C2.01738 4.37737 2.01738 6.62697 2.01738 6.62697H0V9.99409H2.01738V20H6.1615V9.99437H8.9424C8.9424 9.99437 9.20284 8.37986 9.32909 6.61456C8.96714 6.61456 6.17717 6.61456 6.17717 6.61456C6.17717 6.61456 6.17717 4.65567 6.17717 4.31232C6.17717 3.96822 6.629 3.50537 7.07558 3.50537C7.52133 3.50537 8.4621 3.50537 9.33346 3.50537C9.33346 3.04693 9.33346 1.46292 9.33346 1.20278e-08C8.17023 1.20278e-08 6.84685 1.20278e-08 6.26352 1.20278e-08C1.91494 -0.000232486 2.01738 3.37024 2.01738 3.87336Z" fill="#E4C291"/>
</svg>
