<svg width="24" height="24" viewBox="0 0 24 24" fill="none" xmlns="http://www.w3.org/2000/svg">
<path d="M5.51069 19.4489L5.26365 19.2684L5.51069 19.0879C6.51782 18.3563 8.15202 17.8812 9.67221 17.8812C11.1924 17.8812 12.8266 18.3563 13.8337 19.0784L14.0807 19.2494L13.8337 19.4299C12.8171 20.171 11.1924 20.6461 9.67221 20.6461C8.15202 20.6556 6.52732 20.19 5.51069 19.4489ZM11.9145 13.0452L11.6674 12.8646L11.9145 12.6841C12.9216 11.9525 14.5558 11.4775 16.076 11.4775C17.5962 11.4775 19.2304 11.9525 20.2375 12.6746L20.4845 12.8551L20.2375 13.0262C19.2209 13.7672 17.5867 14.2423 16.076 14.2423C14.5653 14.2518 12.9311 13.7767 11.9145 13.0452ZM5.79572 17.3112C5.05463 16.2946 4.57957 14.6699 4.57957 13.1592C4.57957 11.6485 5.05462 10.0143 5.78621 8.99766L5.96673 8.75063L6.14726 8.99766C6.87885 10.0048 7.35392 11.639 7.35392 13.1592C7.35392 14.6699 6.87885 16.2946 6.15677 17.3112L5.97624 17.5582L5.79572 17.3112ZM12.209 10.9074C11.4774 9.90027 11.0024 8.26607 11.0024 6.74588C11.0024 5.2257 11.4774 3.59149 12.209 2.58437L12.3895 2.33734L12.5605 2.58437C13.2921 3.60099 13.7672 5.2352 13.7672 6.74588C13.7672 8.25657 13.2921 9.89077 12.5605 10.9074L12.3895 11.1544L12.209 10.9074ZM16.8171 6.9264C17.0071 5.63424 17.8622 4.07605 18.9929 2.94541C20.1235 1.82428 21.6817 0.969171 22.9738 0.769647L23.2684 0.722141L23.2209 1.01668C23.0308 2.29934 22.1757 3.85753 21.0451 4.98817C19.9145 6.1188 18.3468 6.97391 17.0641 7.17343L16.7696 7.22094L16.8171 6.9264ZM18.4893 2.43235C16.9406 3.98104 16.019 5.82427 16.019 7.37296V7.45847L14.1853 9.29219L14.3183 8.58911C14.4323 7.98103 14.4988 7.35396 14.4988 6.74588C14.4988 4.53211 13.7767 2.53686 12.6175 1.52024C12.5415 1.45373 12.4465 1.41573 12.3515 1.42523C12.2755 1.43473 12.1995 1.46323 12.1425 1.51074C10.9928 2.52736 10.2803 4.52261 10.2803 6.73638C10.2803 8.61761 10.8123 10.3943 11.7054 11.487L11.829 11.639L11.6865 11.7815C10.6983 12.7791 9.7007 13.7767 8.68408 14.7934L7.77198 15.7055L7.90498 15.0119C8.01899 14.3943 8.0855 13.7767 8.0855 13.1592C8.0855 10.9359 7.36341 8.93115 6.21377 7.92403C6.14726 7.86702 6.06175 7.83852 5.97624 7.83852C5.96674 7.83852 5.95724 7.83852 5.94774 7.83852C5.87173 7.84802 5.79572 7.87652 5.73871 7.93353C4.57957 8.95015 3.86698 10.9549 3.86698 13.1592C3.86698 15.0309 4.40856 16.8076 5.30167 17.9098L5.42519 18.0618L5.28265 18.2043C3.91448 19.582 2.51783 20.9786 1.12116 22.3658L0.104528 23.3824C0.0380197 23.4489 0 23.5439 0 23.6485V23.658C0 23.753 0.0380105 23.848 0.0950175 23.905C0.161526 23.962 0.256527 24 0.351539 24C0.456051 24 0.551082 23.962 0.608089 23.8955L4.72208 19.7815L4.8741 19.9145C5.96674 20.8361 7.76248 21.3872 9.67221 21.3872C11.886 21.3872 13.8812 20.6651 14.8979 19.5059C15.0119 19.3824 15.0119 19.1544 14.8979 19.0309C13.8907 17.8812 11.886 17.1687 9.67221 17.1687C9.01663 17.1687 8.36103 17.2352 7.72445 17.3682L7.01187 17.5107L11.1259 13.3872L11.2779 13.5202C12.3705 14.4418 14.1663 14.9834 16.076 14.9929C18.2898 14.9929 20.285 14.2708 21.3016 13.1117C21.4156 12.9881 21.4156 12.7601 21.3016 12.6366C20.2945 11.487 18.2898 10.7744 16.076 10.7744C15.4204 10.7744 14.7648 10.8409 14.1282 10.9739L13.4156 11.1164L16.5225 8.00004H16.608C18.1662 7.99053 20.0095 7.06892 21.5487 5.52973C22.9833 4.09506 23.8859 2.37534 24 0.902664V0.294589C23.9715 0.14257 23.8194 0.00955402 23.6674 5.2855e-05C21.6912 -0.00944831 19.5914 1.26371 18.4893 2.43235Z" fill="#6C6D72"/>
</svg>
