<svg width="16" height="16" viewBox="0 0 16 16" fill="none" xmlns="http://www.w3.org/2000/svg">
<path d="M0.552686 9.36263H1.85595V14.5756C1.85595 14.8828 2.10729 15.1342 2.41448 15.1342H6.23115C6.53834 15.1342 6.78969 14.8828 6.78969 14.5756V10.759H9.11691V14.5756C9.11691 14.8828 9.36825 15.1342 9.67544 15.1342H13.3059C13.6131 15.1342 13.8645 14.8828 13.8645 14.5756V9.36263H15.447C15.6704 9.36263 15.8752 9.223 15.959 9.01821C16.0427 8.81343 15.9962 8.57138 15.838 8.41312L8.55837 1.03116C8.34425 0.81704 7.99054 0.807742 7.77642 1.02186L0.171042 8.40382C0.0034812 8.56209 -0.0430744 8.8041 0.0407059 9.01821C0.124486 9.2323 0.329272 9.36263 0.552686 9.36263ZM8.14877 2.21338L14.1065 8.24556H13.3059C12.9987 8.24556 12.7474 8.4969 12.7474 8.8041V14.0171H10.2339V10.2004C10.2339 9.89324 9.9826 9.6419 9.67541 9.6419H6.23115C5.92396 9.6419 5.67262 9.89324 5.67262 10.2004V14.0171H2.97302V8.8041C2.97302 8.4969 2.72168 8.24556 2.41448 8.24556H1.93043L8.14877 2.21338Z" fill="#231F10"/>
</svg>
