<svg width="14" height="24" viewBox="0 0 14 24" fill="none" xmlns="http://www.w3.org/2000/svg">
<path d="M1.37507 0.945838C1.15107 0.945839 0.940678 1.0524 0.808225 1.23301C0.675643 1.4135 0.637318 1.6463 0.704387 1.85993L3.29193 10.089C2.5863 10.4204 2.07824 11.1416 2.07837 11.9999C2.07836 12.8573 2.58603 13.5793 3.29193 13.9108L0.704244 22.1399C0.637176 22.3536 0.675759 22.5864 0.808212 22.7667C0.940664 22.9473 1.15119 23.054 1.37505 23.0539L12.6256 23.0539C12.8134 23.0539 12.9919 22.9789 13.1228 22.848C13.3081 22.6628 13.3749 22.3898 13.2963 22.1398L10.7088 13.9108C11.4144 13.5793 11.9225 12.8582 11.9223 11.9999C11.9225 11.1426 11.4147 10.4204 10.7088 10.0889L13.2963 1.85992C13.3635 1.64642 13.3248 1.41349 13.1925 1.23301C13.06 1.05239 12.8494 0.945831 12.6256 0.945831L1.37507 0.945838ZM4.70372 9.89034L3.21762 5.16477L10.7828 5.16477L9.29684 9.89046L4.70372 9.89034ZM10.7829 18.8351L3.21774 18.8351L4.70372 14.1094L9.29697 14.1094L10.7829 18.8351ZM11.6674 21.6477L2.3333 21.6477L2.77558 20.2413L11.2251 20.2413L11.6674 21.6477ZM10.5161 12C10.5161 12.3874 10.2012 12.7023 9.81409 12.703C9.81176 12.703 9.80943 12.703 9.80723 12.7032L4.19282 12.703C4.19087 12.7032 4.18893 12.703 4.18686 12.703C3.79882 12.7027 3.48459 12.3887 3.48459 12C3.48459 11.6124 3.79947 11.2975 4.1866 11.297C4.1888 11.2968 4.19113 11.2968 4.19346 11.2968L9.81293 11.2968C10.2016 11.2968 10.516 11.6112 10.5161 12ZM11.2251 3.75841L2.77559 3.75842L2.33331 2.35206L11.6673 2.35219L11.2251 3.75841Z" fill="#DFB57B"/>
</svg>
