<svg width="24" height="24" viewBox="0 0 24 24" fill="none" xmlns="http://www.w3.org/2000/svg">
<path fill-rule="evenodd" clip-rule="evenodd" d="M10.9839 2C8.58835 2 6.32794 2.93309 4.62746 4.63284C1.12418 8.13459 1.12418 13.8384 4.62746 17.3402C6.32777 19.0398 8.57941 19.973 10.9839 19.973C12.9876 19.973 14.8894 19.323 16.4528 18.1208L19.9886 21.6551C20.2244 21.8908 20.5295 22 20.8272 22C21.1203 22 21.4301 21.8936 21.6617 21.6505C22.1143 21.1931 22.1128 20.4428 21.6571 19.9873L18.1213 16.453C19.324 14.8903 19.9743 12.9894 19.9743 10.9865C19.9743 8.59201 19.0408 6.33258 17.3403 4.63284C15.64 2.93326 13.3884 2 10.9839 2ZM11 18C14.866 18 18 14.866 18 11C18 7.13401 14.866 4 11 4C7.13401 4 4 7.13401 4 11C4 14.866 7.13401 18 11 18Z" fill="#231F10"/>
</svg>
