<svg width="24" height="24" viewBox="0 0 24 24" fill="none" xmlns="http://www.w3.org/2000/svg">
<path d="M18.4678 8.68025L18.1133 8.33229C17.9827 8.20063 17.9361 7.99373 18.0107 7.82445C18.0854 7.64577 18.2533 7.53292 18.4399 7.53292H23.0297L22.8991 6.79937L22.2741 6.70533C22.0688 6.67712 21.9102 6.51724 21.8822 6.31034L21.789 5.68025L21.1732 5.58621C20.968 5.55799 20.8094 5.39812 20.7814 5.19122L20.6881 4.56113L19.9885 4.41066C19.8019 4.37304 19.6526 4.21317 19.6246 4.02508L19.5313 3.39498L18.8223 3.24451C18.6358 3.2069 18.4865 3.04702 18.4585 2.85893L18.3652 2.22884L17.7402 2.1348C17.535 2.10658 17.3857 1.94671 17.3484 1.73981L17.2551 1.10972L16.5647 0.987461V5.63323C16.5647 5.82132 16.4528 5.9906 16.2755 6.06583C16.0983 6.14107 15.9024 6.10345 15.7718 5.96238L15.4546 5.64263L15.6412 5.45455V0.799373C15.6412 0.752351 15.6505 0.695925 15.6692 0.648903C15.7065 0.526646 15.7624 0.366771 15.9024 0.225705C15.9957 0.131661 16.1822 0 16.4901 0L17.5629 0.188088C17.8241 0.178683 18.104 0.423197 18.1693 0.799373L18.2346 1.24138L18.6544 1.30721C18.9343 1.29781 19.2048 1.55172 19.2701 1.9185L19.3448 2.37931L19.8019 2.48276C20.1097 2.51097 20.3616 2.74608 20.4269 3.09404L20.5016 3.55486L20.968 3.65831C21.2759 3.68652 21.5277 3.92163 21.593 4.26959L21.6583 4.7116L22.0782 4.77743C22.358 4.77743 22.6192 5.01254 22.6939 5.37931L22.7592 5.82132L23.179 5.88715C23.4308 5.86834 23.7201 6.12226 23.7947 6.48903L23.9626 7.45768C23.9813 7.52351 23.9999 7.58934 23.9999 7.64577C23.9999 7.70219 23.9906 7.76803 23.9719 7.82445C23.916 8.19122 23.6081 8.46395 23.2256 8.46395H18.6824L18.4678 8.68025ZM23.039 6.80878C23.0577 6.81818 23.0857 6.81818 23.1137 6.81818L23.039 6.80878ZM21.9289 5.69906C21.9475 5.70846 21.9755 5.70846 22.0035 5.70846L21.9289 5.69906ZM18.4958 2.22884C18.5145 2.23824 18.5425 2.23824 18.5705 2.23824L18.4958 2.22884ZM17.3764 1.10972C17.4043 1.11912 17.4323 1.12853 17.4603 1.12853L17.3764 1.10972Z" fill="#6C6D72"/>
<path d="M7.41311 24.0001L6.34028 23.8121C6.10705 23.8215 5.79919 23.5769 5.73389 23.2008L5.66859 22.7588L5.24879 22.6929H5.23946C4.97825 22.6929 4.69838 22.4484 4.63307 22.0911L4.56777 21.6396L4.14797 21.5738H4.13864C3.87743 21.5738 3.59756 21.3293 3.52293 20.9719L3.45763 20.5299L3.03782 20.4641C2.75795 20.4265 2.48741 20.2196 2.42211 19.8528L2.35681 19.4108L1.937 19.345C1.73177 19.3074 1.58251 19.1757 1.52653 19.1193C1.47056 19.0628 1.30264 18.8936 1.30264 18.6396L1.24666 18.2917L0.82686 18.2258H0.817529C0.546989 18.2258 0.276451 17.9813 0.211149 17.6146L0.0432271 16.6835C-0.0127466 16.5519 -0.0127486 16.4014 0.0338962 16.2697C0.0898699 15.903 0.397728 15.6396 0.780216 15.6396H5.43537L5.64993 15.4233L6.00443 15.7807C6.13504 15.9124 6.18168 16.1193 6.10705 16.2885C6.03242 16.4672 5.8645 16.5801 5.67792 16.5801H0.976123L1.10673 17.3136L1.73177 17.4077C1.937 17.4359 2.0956 17.5958 2.12358 17.8027L2.21687 18.4327L2.83258 18.5268C3.03782 18.555 3.19642 18.7149 3.2244 18.9218L3.31769 19.5519L3.94273 19.6459C4.14797 19.6741 4.30656 19.834 4.33455 20.0409L4.42784 20.671L5.04355 20.765C5.24879 20.7932 5.40738 20.9531 5.43537 21.16L5.52865 21.7901L6.15369 21.8842C6.35893 21.9124 6.51753 22.0722 6.54551 22.2791L6.6388 22.9186L7.35713 23.0409L7.54371 18.461C7.55304 18.2729 7.66499 18.113 7.84224 18.0472C8.01949 17.9813 8.2154 18.019 8.346 18.1506L8.72849 18.5362L8.47661 18.7901L8.2807 23.229C8.2807 23.276 8.27137 23.3136 8.26204 23.3512C8.22472 23.4735 8.16875 23.6334 8.02882 23.7744C7.90754 23.8779 7.72096 24.0001 7.41311 24.0001ZM6.42423 22.881L6.5082 22.8904C6.48021 22.881 6.45222 22.881 6.42423 22.881ZM5.31409 21.7619L5.38872 21.7713C5.37006 21.7713 5.34208 21.7619 5.31409 21.7619ZM4.21327 20.6522L4.2879 20.6616C4.25992 20.6522 4.24126 20.6522 4.21327 20.6522ZM3.10313 19.5331L3.17776 19.5425C3.14977 19.5331 3.13111 19.5331 3.10313 19.5331ZM2.21687 18.5362L2.2262 18.5832C2.2262 18.5644 2.2262 18.555 2.21687 18.5362ZM2.00231 18.4139L2.11425 18.4327C2.08627 18.4233 2.03962 18.4139 2.00231 18.4139ZM0.892162 17.3042L0.966792 17.3136C0.938805 17.3042 0.920149 17.3042 0.892162 17.3042Z" fill="#6C6D72"/>
<path d="M12.003 20.116C7.56246 20.116 3.95215 16.4765 3.95215 12C3.95215 7.52353 7.56246 3.88403 12.003 3.88403C16.4436 3.88403 20.0539 7.52353 20.0539 12C20.0539 16.4765 16.4436 20.116 12.003 20.116ZM12.003 4.83388C8.07555 4.83388 4.88504 8.05018 4.88504 12.0094C4.88504 15.9687 8.07555 19.185 12.003 19.185C15.9305 19.185 19.121 15.9687 19.121 12.0094C19.121 8.05018 15.9212 4.83388 12.003 4.83388Z" fill="#6C6D72"/>
</svg>
