<svg width="24" height="24" viewBox="0 0 24 24" fill="none" xmlns="http://www.w3.org/2000/svg">
<path d="M9.55976 13.6732C9.93774 13.5731 10.2268 13.2396 10.2601 12.8394C10.2935 12.4391 10.0934 12.0611 9.72651 11.8833C8.27015 11.1606 7.36965 9.72652 7.36965 8.12563C7.36965 5.80211 9.25959 3.91217 11.5831 3.91217C13.9066 3.91217 15.7966 5.80211 15.7966 8.12563C15.7966 9.72652 14.8849 11.1606 13.4286 11.8833C13.0728 12.0611 12.8616 12.4391 12.8949 12.8394C12.9283 13.2396 13.2062 13.562 13.5953 13.6732C16.6081 14.4958 18.7871 17.0639 19.1762 20.0878H3.97888C4.35686 17.0528 6.54697 14.4847 9.55976 13.6732ZM5.44636 8.12563C5.44636 9.80434 6.12451 11.3608 7.29183 12.4947C4.10117 14.0845 2 17.3863 2 21.0439C2 21.5775 2.43357 22 2.95609 22H20.2101C20.7437 22 21.1662 21.5664 21.1662 21.0439C21.1662 17.3863 19.065 14.0845 15.8633 12.4947C17.0306 11.3608 17.7087 9.80434 17.7087 8.12563C17.7198 4.74597 14.9628 2 11.5831 2C8.20345 2 5.44636 4.74597 5.44636 8.12563Z" fill="#231F10"/>
</svg>
