<svg width="40" height="40" viewBox="0 0 40 40" fill="none" xmlns="http://www.w3.org/2000/svg">
<path d="M19.9963 3.6166C29.0269 3.6166 36.3761 10.9658 36.3761 19.9964C36.3761 29.027 29.0269 36.3762 19.9963 36.3762C10.9657 36.3762 3.61652 29.027 3.61652 19.9964C3.61652 10.9658 10.9657 3.6166 19.9963 3.6166ZM19.9963 -8.74069e-07C8.95082 -1.35688e-06 -8.43146e-05 8.9509 -8.47974e-05 19.9964C-8.52802e-05 31.0419 8.95082 39.9928 19.9963 39.9928C31.0418 39.9928 39.9927 31.0419 39.9927 19.9964C39.9927 8.9509 31.0418 -3.91256e-07 19.9963 -8.74069e-07Z" fill="#231F10"/>
</svg>
